<?xml version="1.0" encoding="UTF-8" standalone="no"?>
<!-- Created with Inkscape (http://www.inkscape.org/) -->
<svg
   xmlns:dc="http://purl.org/dc/elements/1.1/"
   xmlns:cc="http://web.resource.org/cc/"
   xmlns:rdf="http://www.w3.org/1999/02/22-rdf-syntax-ns#"
   xmlns:svg="http://www.w3.org/2000/svg"
   xmlns="http://www.w3.org/2000/svg"
   xmlns:xlink="http://www.w3.org/1999/xlink"
   xmlns:sodipodi="http://sodipodi.sourceforge.net/DTD/sodipodi-0.dtd"
   xmlns:inkscape="http://www.inkscape.org/namespaces/inkscape"
   width="64px"
   height="64px"
   id="svg2160"
   sodipodi:version="0.32"
   inkscape:version="0.45.1"
   sodipodi:docbase="/home/iovar/workspace/plasma/toggle-compositing/images"
   sodipodi:docname="onoff_switch.svg"
   inkscape:output_extension="org.inkscape.output.svg.inkscape">
  <defs
     id="defs2162">
    <linearGradient
       id="linearGradient3162">
      <stop
         style="stop-color:#c40000;stop-opacity:0.48627451;"
         offset="0"
         id="stop3164" />
      <stop
         id="stop3166"
         offset="0.42143601"
         style="stop-color:#ff0000;stop-opacity:0.24313726;" />
      <stop
         id="stop3168"
         offset="0.84287202"
         style="stop-color:#5a0000;stop-opacity:0.74901962;" />
      <stop
         style="stop-color:#7d0000;stop-opacity:0.6156863;"
         offset="0.8508212"
         id="stop3170" />
      <stop
         style="stop-color:#7d0000;stop-opacity:0.53333336;"
         offset="0.86527425"
         id="stop3172" />
      <stop
         id="stop3174"
         offset="0.92968059"
         style="stop-color:#7d0000;stop-opacity:0.15686275;" />
      <stop
         style="stop-color:#7d0000;stop-opacity:0.27058825;"
         offset="0.96143776"
         id="stop3176" />
      <stop
         style="stop-color:#7d0000;stop-opacity:0.34509805;"
         offset="1"
         id="stop3178" />
    </linearGradient>
    <linearGradient
       id="linearGradient3238">
      <stop
         id="stop3240"
         offset="0"
         style="stop-color:#00c400;stop-opacity:0.48627451;" />
      <stop
         style="stop-color:#00ff00;stop-opacity:0.24313726;"
         offset="0.42143601"
         id="stop3242" />
      <stop
         style="stop-color:#005a00;stop-opacity:0.74901962;"
         offset="0.84287202"
         id="stop3244" />
      <stop
         id="stop3246"
         offset="0.8508212"
         style="stop-color:#007d00;stop-opacity:0.6156863;" />
      <stop
         id="stop3248"
         offset="0.86527425"
         style="stop-color:#007d00;stop-opacity:0.53333336;" />
      <stop
         style="stop-color:#007d00;stop-opacity:0.15686275;"
         offset="0.92968059"
         id="stop3250" />
      <stop
         id="stop3252"
         offset="0.96143776"
         style="stop-color:#007d00;stop-opacity:0.27058825;" />
      <stop
         id="stop3254"
         offset="1"
         style="stop-color:#007d00;stop-opacity:0.34509805;" />
    </linearGradient>
    <linearGradient
       id="linearGradient3159">
      <stop
         style="stop-color:#000000;stop-opacity:0.48598132;"
         offset="0"
         id="stop3161" />
      <stop
         id="stop3185"
         offset="0.42143601"
         style="stop-color:#000000;stop-opacity:0.24299066;" />
      <stop
         id="stop3171"
         offset="0.84287202"
         style="stop-color:#000000;stop-opacity:0.74901961;" />
      <stop
         style="stop-color:#000000;stop-opacity:0.61682242;"
         offset="0.8508212"
         id="stop3193" />
      <stop
         style="stop-color:#000000;stop-opacity:0.53271025;"
         offset="0.86527425"
         id="stop3183" />
      <stop
         id="stop3167"
         offset="0.92968059"
         style="stop-color:#000000;stop-opacity:0.15887851;" />
      <stop
         style="stop-color:#000000;stop-opacity:0.27102804;"
         offset="0.96143776"
         id="stop3169" />
      <stop
         style="stop-color:#000000;stop-opacity:0.34579438;"
         offset="1"
         id="stop3163" />
    </linearGradient>
    <linearGradient
       inkscape:collect="always"
       xlink:href="#linearGradient3159"
       id="linearGradient3231"
       gradientUnits="userSpaceOnUse"
       x1="16"
       y1="62"
       x2="16"
       y2="2" />
    <linearGradient
       inkscape:collect="always"
       xlink:href="#linearGradient3238"
       id="linearGradient3236"
       gradientUnits="userSpaceOnUse"
       x1="16"
       y1="62"
       x2="16"
       y2="2"
       gradientTransform="translate(32,-64)" />
    <linearGradient
       inkscape:collect="always"
       xlink:href="#linearGradient3162"
       id="linearGradient2189"
       gradientUnits="userSpaceOnUse"
       x1="16"
       y1="62"
       x2="16"
       y2="2" />
    <linearGradient
       inkscape:collect="always"
       xlink:href="#linearGradient3162"
       id="linearGradient3190"
       gradientUnits="userSpaceOnUse"
       x1="16"
       y1="62"
       x2="16"
       y2="2" />
    <linearGradient
       inkscape:collect="always"
       xlink:href="#linearGradient3162"
       id="linearGradient3202"
       gradientUnits="userSpaceOnUse"
       x1="16"
       y1="62"
       x2="16"
       y2="2" />
    <linearGradient
       inkscape:collect="always"
       xlink:href="#linearGradient3238"
       id="linearGradient3217"
       gradientUnits="userSpaceOnUse"
       gradientTransform="translate(32,-64)"
       x1="16"
       y1="62"
       x2="16"
       y2="2" />
    <linearGradient
       inkscape:collect="always"
       xlink:href="#linearGradient3238"
       id="linearGradient3224"
       gradientUnits="userSpaceOnUse"
       gradientTransform="translate(32,-64)"
       x1="16"
       y1="62"
       x2="16"
       y2="2" />
    <linearGradient
       inkscape:collect="always"
       xlink:href="#linearGradient3238"
       id="linearGradient3229"
       gradientUnits="userSpaceOnUse"
       gradientTransform="translate(32,-64)"
       x1="16"
       y1="62"
       x2="16"
       y2="2" />
  </defs>
  <sodipodi:namedview
     id="base"
     pagecolor="#ffffff"
     bordercolor="#666666"
     borderopacity="1.0"
     inkscape:pageopacity="0.0"
     inkscape:pageshadow="2"
     inkscape:zoom="5.5"
     inkscape:cx="19.39436"
     inkscape:cy="31.491772"
     inkscape:current-layer="layer1"
     showgrid="true"
     inkscape:document-units="px"
     inkscape:grid-bbox="true"
     inkscape:window-width="791"
     inkscape:window-height="588"
     inkscape:window-x="346"
     inkscape:window-y="350" />
  <metadata
     id="metadata2165">
    <rdf:RDF>
      <cc:Work
         rdf:about="">
        <dc:format>image/svg+xml</dc:format>
        <dc:type
           rdf:resource="http://purl.org/dc/dcmitype/StillImage" />
      </cc:Work>
    </rdf:RDF>
  </metadata>
  <g
     id="layer1"
     inkscape:label="Layer 1"
     inkscape:groupmode="layer">
    <g
       id="off"
       inkscape:label="#g3204">
      <rect
         ry="3.125"
         rx="3.5"
         y="2"
         x="2"
         height="60"
         width="28"
         id="rect3197"
         style="fill:#ffffff;fill-opacity:0.55958551;stroke:none;stroke-width:0.2;stroke-miterlimit:4;stroke-dasharray:none;stroke-opacity:1" />
      <rect
         ry="3.125"
         rx="3.5"
         y="2"
         x="2"
         height="60"
         width="28"
         id="rect2186"
         style="fill:url(#linearGradient3202);fill-opacity:1;stroke:#000000;stroke-width:0.2;stroke-miterlimit:4;stroke-dasharray:none;stroke-opacity:1" />
      <path
         id="text3206"
         d="M 14.4,13.070136 L 15.583594,13.070136 L 15.583594,21.818183 L 14.4,21.818183 L 14.4,13.070136"
         style="fill:#000000;fill-opacity:1;stroke:none;font-family:It wasn" />
      <path
         id="text3210"
         d="M 15.023437,50.861328 C 14.414059,50.861336 13.955075,51.162117 13.646484,51.763672 C 13.341794,52.361334 13.189451,53.261724 13.189453,54.464844 C 13.189451,55.664066 13.341794,56.564455 13.646484,57.166015 C 13.955075,57.763673 14.414059,58.062501 15.023437,58.0625 C 15.636714,58.062501 16.095698,57.763673 16.40039,57.166015 C 16.708978,56.564455 16.863275,55.664066 16.863281,54.464844 C 16.863275,53.261724 16.708978,52.361334 16.40039,51.763672 C 16.095698,51.162117 15.636714,50.861336 15.023437,50.861328 M 15.023437,49.923828 C 16.003901,49.923837 16.751947,50.312508 17.267578,51.089844 C 17.787102,51.863288 18.046868,52.988287 18.046875,54.464844 C 18.046868,55.937503 17.787102,57.062502 17.267578,57.839844 C 16.751947,58.613281 16.003901,59 15.023437,59 C 14.042966,59 13.292966,58.613281 12.773437,57.839844 C 12.257811,57.062502 11.999999,55.937503 12,54.464844 C 11.999999,52.988287 12.257811,51.863288 12.773437,51.089844 C 13.292966,50.312508 14.042966,49.923837 15.023437,49.923828"
         style="fill:#000000;fill-opacity:1;stroke:none;font-family:It wasn" />
    </g>
    <g
       id="on"
       inkscape:label="#g3231">
      <rect
         ry="3.125"
         rx="3.5"
         y="2"
         x="34"
         height="60"
         width="28"
         id="rect3184"
         style="fill:#ffffff;fill-opacity:0.55958551;stroke:none;stroke-width:0.2;stroke-miterlimit:4;stroke-dasharray:none;stroke-opacity:1" />
      <rect
         transform="scale(1,-1)"
         ry="3.125"
         rx="3.5"
         y="-62"
         x="34"
         height="60"
         width="28"
         id="rect3225"
         style="fill:url(#linearGradient3229);fill-opacity:1;stroke:#000000;stroke-width:0.2;stroke-miterlimit:4;stroke-dasharray:none;stroke-opacity:1" />
      <path
         id="path3227"
         d="M 46.4,5.070136 L 47.583594,5.070136 L 47.583594,13.818183 L 46.4,13.818183 L 46.4,5.070136"
         style="fill:#000000;fill-opacity:1;stroke:none;font-family:It wasn" />
      <path
         id="path3229"
         d="M 47.023437,42.861328 C 46.414059,42.861336 45.955075,43.162117 45.646484,43.763672 C 45.341794,44.361334 45.189451,45.261724 45.189453,46.464844 C 45.189451,47.664066 45.341794,48.564455 45.646484,49.166015 C 45.955075,49.763673 46.414059,50.062501 47.023437,50.0625 C 47.636714,50.062501 48.095698,49.763673 48.40039,49.166015 C 48.708978,48.564455 48.863275,47.664066 48.863281,46.464844 C 48.863275,45.261724 48.708978,44.361334 48.40039,43.763672 C 48.095698,43.162117 47.636714,42.861336 47.023437,42.861328 M 47.023437,41.923828 C 48.003901,41.923837 48.751947,42.312508 49.267578,43.089844 C 49.787102,43.863288 50.046868,44.988287 50.046875,46.464844 C 50.046868,47.937503 49.787102,49.062502 49.267578,49.839844 C 48.751947,50.613281 48.003901,51 47.023437,51 C 46.042966,51 45.292966,50.613281 44.773437,49.839844 C 44.257811,49.062502 43.999999,47.937503 44,46.464844 C 43.999999,44.988287 44.257811,43.863288 44.773437,43.089844 C 45.292966,42.312508 46.042966,41.923837 47.023437,41.923828"
         style="fill:#000000;fill-opacity:1;stroke:none;font-family:It wasn" />
    </g>
  </g>
</svg>
